<svg version="1.1" xmlns="http://www.w3.org/2000/svg" viewBox="0 0 717.41796875 650.796875" width="717.41796875" height="650.796875">
  <!-- svg-source:excalidraw -->
  
  <defs>
    <style class="style-fonts">
      @font-face {
        font-family: "Virgil";
        src: url("https://excalidraw.com/Virgil.woff2");
      }
      @font-face {
        font-family: "Cascadia";
        src: url("https://excalidraw.com/Cascadia.woff2");
      }
      @font-face {
        font-family: "Assistant";
        src: url("https://excalidraw.com/Assistant-Regular.woff2");
      }
    </style>
    
  </defs>
  <g stroke-linecap="round" transform="translate(116.35546875 91.1953125) rotate(0 220.46484375 36.1953125)"><path d="M18.1 0 C117.73 1.62, 217.73 1.09, 422.83 0 M18.1 0 C112.56 0.99, 207 1.18, 422.83 0 M422.83 0 C435.13 -0.04, 439.15 6.36, 440.93 18.1 M422.83 0 C433.89 0.32, 441.44 6.38, 440.93 18.1 M440.93 18.1 C441.23 25.7, 438.82 35.71, 440.93 54.29 M440.93 18.1 C440.39 28.48, 439.7 39.62, 440.93 54.29 M440.93 54.29 C441.77 68.31, 435.72 73.57, 422.83 72.39 M440.93 54.29 C439.78 64.16, 434.68 72.48, 422.83 72.39 M422.83 72.39 C289.14 70.69, 153.88 71.48, 18.1 72.39 M422.83 72.39 C281.29 71.82, 139.95 71.61, 18.1 72.39 M18.1 72.39 C5.52 73.76, -1.52 66.37, 0 54.29 M18.1 72.39 C7.19 72.01, 0.46 65.99, 0 54.29 M0 54.29 C2.25 44.18, 1.6 35.62, 0 18.1 M0 54.29 C0.19 43.15, -0.12 31.19, 0 18.1 M0 18.1 C0.6 4.71, 4.92 -0.86, 18.1 0 M0 18.1 C-0.65 4.69, 6.47 0.15, 18.1 0" stroke="#1e1e1e" stroke-width="2" fill="none"></path></g><g transform="translate(295.4203414916992 114.890625) rotate(0 41.39997100830078 12.5)"><text x="41.39997100830078" y="17.52" font-family="Virgil, Segoe UI Emoji" font-size="20px" fill="#1e1e1e" text-anchor="middle" style="white-space: pre;" direction="ltr" dominant-baseline="alphabetic">State 0</text></g><g stroke-linecap="round" transform="translate(116.5078125 250.74609375) rotate(0 220.46484375 36.1953125)"><path d="M18.1 0 C153.69 2.43, 288.6 1.82, 422.83 0 M18.1 0 C152.51 0.65, 286 0.96, 422.83 0 M422.83 0 C433.94 1.31, 441.78 5.58, 440.93 18.1 M422.83 0 C434.23 -1.03, 438.75 7.76, 440.93 18.1 M440.93 18.1 C440.02 26.7, 439.13 38.64, 440.93 54.29 M440.93 18.1 C440.48 30.01, 439.77 41.62, 440.93 54.29 M440.93 54.29 C441.69 64.9, 436.51 71.99, 422.83 72.39 M440.93 54.29 C438.86 68.56, 436.13 72.94, 422.83 72.39 M422.83 72.39 C273.71 73.32, 124.95 73.62, 18.1 72.39 M422.83 72.39 C290.28 72.96, 157.95 73.42, 18.1 72.39 M18.1 72.39 C7.14 72.71, -1.72 64.46, 0 54.29 M18.1 72.39 C6.96 70.84, 1.74 66.75, 0 54.29 M0 54.29 C-1.29 42.5, 1.18 28.3, 0 18.1 M0 54.29 C0.29 42.34, 0.43 28.73, 0 18.1 M0 18.1 C1.4 7.39, 5.83 -0.46, 18.1 0 M0 18.1 C-0.57 4.75, 6.84 1.24, 18.1 0" stroke="#1e1e1e" stroke-width="2" fill="none"></path></g><g transform="translate(299.74268341064453 274.44140625) rotate(0 37.22997283935547 12.5)"><text x="37.22997283935547" y="17.52" font-family="Virgil, Segoe UI Emoji" font-size="20px" fill="#1e1e1e" text-anchor="middle" style="white-space: pre;" direction="ltr" dominant-baseline="alphabetic">State 1</text></g><g mask="url(#mask-AjmkhXVC-FoeuDPKJWoXZ)" stroke-linecap="round"><g transform="translate(336.328125 163.98046875) rotate(0 0.126953125 44.322265625)"><path d="M-0.15 0.04 C0.01 15, 0.27 74.17, 0.2 88.95 M-1.69 -0.98 C-1.63 13.67, -1.37 71.81, -0.78 86.98" stroke="#1e1e1e" stroke-width="2" fill="none"></path></g><g transform="translate(336.328125 163.98046875) rotate(0 0.126953125 44.322265625)"><path d="M-9.78 63.66 C-7.73 69.12, -5.16 73.34, -0.78 86.98 M-9.78 63.66 C-7.71 69.94, -4.75 78.28, -0.78 86.98" stroke="#1e1e1e" stroke-width="2" fill="none"></path></g><g transform="translate(336.328125 163.98046875) rotate(0 0.126953125 44.322265625)"><path d="M7.32 63.33 C5.31 68.84, 3.82 73.14, -0.78 86.98 M7.32 63.33 C4.16 69.75, 1.89 78.19, -0.78 86.98" stroke="#1e1e1e" stroke-width="2" fill="none"></path></g></g><mask id="mask-AjmkhXVC-FoeuDPKJWoXZ"><rect x="0" y="0" fill="#fff" width="436.58203125" height="352.625"></rect><rect x="299.46509552001953" y="195.802734375" fill="#000" width="73.97996520996094" height="25" opacity="1"></rect></mask><g transform="translate(299.46509552001953 195.802734375) rotate(0 36.125067341730244 12.161226915419093)"><text x="36.98998260498047" y="17.52" font-family="Virgil, Segoe UI Emoji" font-size="20px" fill="#1e1e1e" text-anchor="middle" style="white-space: pre;" direction="ltr" dominant-baseline="alphabetic">[ 0-9 ]</text></g><g stroke-linecap="round" transform="translate(117.6171875 409.55078125) rotate(0 220.46484375 36.1953125)"><path d="M18.1 0 C162.03 2.43, 307.38 2.69, 422.83 0 M18.1 0 C162.31 0.15, 305.89 -0.07, 422.83 0 M422.83 0 C436.68 1.68, 440.72 7.87, 440.93 18.1 M422.83 0 C433.07 -1.68, 443.19 5.67, 440.93 18.1 M440.93 18.1 C442.29 31.35, 440.18 41.11, 440.93 54.29 M440.93 18.1 C441.13 31.52, 440.69 44.32, 440.93 54.29 M440.93 54.29 C440.95 66.58, 436.54 73.81, 422.83 72.39 M440.93 54.29 C438.94 66.62, 432.61 73.04, 422.83 72.39 M422.83 72.39 C289.45 73.28, 158.44 72.98, 18.1 72.39 M422.83 72.39 C304.68 72.92, 185.43 73.69, 18.1 72.39 M18.1 72.39 C7 73.26, 1.43 64.51, 0 54.29 M18.1 72.39 C4.83 72.06, -0.65 64.69, 0 54.29 M0 54.29 C0.3 45.29, 0.82 33.58, 0 18.1 M0 54.29 C-1.05 46.39, 0.32 36.89, 0 18.1 M0 18.1 C-1.38 6.12, 4.31 -1.53, 18.1 0 M0 18.1 C0.08 4.96, 5.55 -1.13, 18.1 0" stroke="#1e1e1e" stroke-width="2" fill="none"></path></g><g transform="translate(296.4420623779297 433.24609375) rotate(0 41.63996887207031 12.5)"><text x="41.63996887207031" y="17.52" font-family="Virgil, Segoe UI Emoji" font-size="20px" fill="#1e1e1e" text-anchor="middle" style="white-space: pre;" direction="ltr" dominant-baseline="alphabetic">State 2</text></g><g mask="url(#mask-Z49DBLP3vdVGYFLLyzE9p)" stroke-linecap="round"><g transform="translate(556.43359375 316.66796875) rotate(0 35.86328125 -31.5)"><path d="M0.58 -0.51 C13.64 -6.02, 79.01 -22.89, 78.13 -33.21 C77.25 -43.53, 9.47 -57.48, -4.69 -62.43 M-0.57 -1.83 C12.4 -7.18, 78.25 -21.6, 77.53 -32.04 C76.81 -42.48, 9.21 -59.52, -4.89 -64.48" stroke="#1e1e1e" stroke-width="2" fill="none"></path></g><g transform="translate(556.43359375 316.66796875) rotate(0 35.86328125 -31.5)"><path d="M20.07 -65.87 C12.13 -64.27, 4.75 -63.17, -4.89 -64.48 M20.07 -65.87 C10.69 -64.87, 3.46 -63.97, -4.89 -64.48" stroke="#1e1e1e" stroke-width="2" fill="none"></path></g><g transform="translate(556.43359375 316.66796875) rotate(0 35.86328125 -31.5)"><path d="M15.12 -49.5 C8.61 -52.57, 2.63 -56.12, -4.89 -64.48 M15.12 -49.5 C7.6 -54.18, 2.09 -58.97, -4.89 -64.48" stroke="#1e1e1e" stroke-width="2" fill="none"></path></g></g><mask id="mask-Z49DBLP3vdVGYFLLyzE9p"><rect x="0" y="0" fill="#fff" width="739.67578125" height="479.66796875"></rect><rect x="596.9279861450195" y="271.64453125" fill="#000" width="73.97996520996094" height="25" opacity="1"></rect></mask><g transform="translate(596.9279861450195 271.64453125) rotate(0 -3.869396388021187 12.527378722568983)"><text x="36.98998260498047" y="17.52" font-family="Virgil, Segoe UI Emoji" font-size="20px" fill="#1e1e1e" text-anchor="middle" style="white-space: pre;" direction="ltr" dominant-baseline="alphabetic">[ 0-9 ]</text></g><g mask="url(#mask-MNPOoUpZlQx2mpjsXQeVs)" stroke-linecap="round"><g transform="translate(338.421875 324.7734375) rotate(0 -0.462890625 42.740234375)"><path d="M0.92 1.13 C0.72 15.58, -1.42 72.38, -1.56 86.38 M-0.06 0.68 C0.18 14.83, 0.84 70.46, 0.82 84.73" stroke="#1e1e1e" stroke-width="2" fill="none"></path></g><g transform="translate(338.421875 324.7734375) rotate(0 -0.462890625 42.740234375)"><path d="M-7.88 61.29 C-3.72 66.45, -1.78 75.44, 0.82 84.73 M-7.88 61.29 C-4.58 67.89, -2.76 73.7, 0.82 84.73" stroke="#1e1e1e" stroke-width="2" fill="none"></path></g><g transform="translate(338.421875 324.7734375) rotate(0 -0.462890625 42.740234375)"><path d="M9.22 61.18 C8.8 66.5, 6.16 75.53, 0.82 84.73 M9.22 61.18 C7.85 67.79, 4.98 73.63, 0.82 84.73" stroke="#1e1e1e" stroke-width="2" fill="none"></path></g></g><mask id="mask-MNPOoUpZlQx2mpjsXQeVs"><rect x="0" y="0" fill="#fff" width="439.34765625" height="510.25390625"></rect><rect x="315.3089904785156" y="355.013671875" fill="#000" width="45.29998779296875" height="25" opacity="1"></rect></mask><g transform="translate(315.3089904785156 355.013671875) rotate(0 22.793032481148828 13.289658428719235)"><text x="22.649993896484375" y="17.52" font-family="Virgil, Segoe UI Emoji" font-size="20px" fill="#1e1e1e" text-anchor="middle" style="white-space: pre;" direction="ltr" dominant-baseline="alphabetic">[ . ]</text></g><g mask="url(#mask-EBfckg6rx0eGkpuNA3TKM)" stroke-linecap="round"><g transform="translate(560.0172796204965 478.1452198206623) rotate(0 35.86328125 -31.387080521615644)"><path d="M0.94 -0.49 C13.74 -6.07, 78.52 -22.09, 77.28 -32.6 C76.05 -43.11, 7.22 -58.66, -6.49 -63.57 M-0.03 -1.79 C12.56 -7.28, 76.89 -21.07, 76.23 -31.22 C75.57 -41.37, 9.44 -57.17, -3.98 -62.67" stroke="#1e1e1e" stroke-width="2" fill="none"></path></g><g transform="translate(560.0172796204965 478.1452198206623) rotate(0 35.86328125 -31.387080521615644)"><path d="M21 -63.75 C11.78 -63.53, 3.67 -64.04, -3.98 -62.67 M21 -63.75 C14.23 -63.69, 9.12 -63.92, -3.98 -62.67" stroke="#1e1e1e" stroke-width="2" fill="none"></path></g><g transform="translate(560.0172796204965 478.1452198206623) rotate(0 35.86328125 -31.387080521615644)"><path d="M15.85 -47.44 C8.24 -52.76, 1.87 -58.77, -3.98 -62.67 M15.85 -47.44 C10.17 -51.22, 6.26 -55.27, -3.98 -62.67" stroke="#1e1e1e" stroke-width="2" fill="none"></path></g></g><mask id="mask-EBfckg6rx0eGkpuNA3TKM"><rect x="0" y="0" fill="#fff" width="743.2594671204965" height="640.9193808638936"></rect><rect x="600.5116720155161" y="433.347621277431" fill="#000" width="73.97996520996094" height="25" opacity="1"></rect></mask><g transform="translate(600.5116720155161 433.347621277431) rotate(0 -5.087774221193058 12.768101435261258)"><text x="36.98998260498047" y="17.52" font-family="Virgil, Segoe UI Emoji" font-size="20px" fill="#1e1e1e" text-anchor="middle" style="white-space: pre;" direction="ltr" dominant-baseline="alphabetic">[ 0-9 ]</text></g><g stroke-linecap="round" transform="translate(118.7734375 544.96875) rotate(0 220.46484375 36.1953125)"><path d="M18.1 0 C153.46 1.25, 286.22 1.01, 422.83 0 M18.1 0 C178.37 1.52, 338.36 1.34, 422.83 0 M422.83 0 C434.9 1.41, 441.14 6.51, 440.93 18.1 M422.83 0 C436.6 -0.14, 438.78 6.56, 440.93 18.1 M440.93 18.1 C439.85 28.98, 440.35 42.54, 440.93 54.29 M440.93 18.1 C440.47 27.17, 441.79 35.99, 440.93 54.29 M440.93 54.29 C441.83 64.63, 436.47 72.65, 422.83 72.39 M440.93 54.29 C440.66 66.89, 436.21 71.32, 422.83 72.39 M422.83 72.39 C295.89 69.91, 167.01 70.62, 18.1 72.39 M422.83 72.39 C266.53 71.65, 111.53 72.45, 18.1 72.39 M18.1 72.39 C4.94 73.35, 0.65 66.62, 0 54.29 M18.1 72.39 C6.48 74.52, -2.06 65.41, 0 54.29 M0 54.29 C1.43 44.77, 2.02 39.99, 0 18.1 M0 54.29 C-0.15 46.54, 1.27 37.31, 0 18.1 M0 18.1 C-0.41 5.9, 7.79 -0.5, 18.1 0 M0 18.1 C-2.14 4.91, 6.34 1.21, 18.1 0" stroke="#1e1e1e" stroke-width="2" fill="none"></path></g><g transform="translate(297.90830993652344 568.6640625) rotate(0 41.32997131347656 12.5)"><text x="41.32997131347656" y="17.52" font-family="Virgil, Segoe UI Emoji" font-size="20px" fill="#1e1e1e" text-anchor="middle" style="white-space: pre;" direction="ltr" dominant-baseline="alphabetic">State 3</text></g><g mask="url(#mask-0TZPDPAHxCinj--dI8ZAl)" stroke-linecap="round"><g transform="translate(339.9883673856409 484.1484375) rotate(0 -0.3702746569688884 29.91015625)"><path d="M-0.86 -0.11 C-1.06 9.96, -1.82 49.97, -1.61 59.88 M0.89 -1.21 C1.1 9.12, 0.76 51.17, 0.65 61.44" stroke="#1e1e1e" stroke-width="2" fill="none"></path></g><g transform="translate(339.9883673856409 484.1484375) rotate(0 -0.3702746569688884 29.91015625)"><path d="M-7.69 37.87 C-5.75 42.77, -3.26 52.36, 0.65 61.44 M-7.69 37.87 C-5.17 43.46, -2.54 49.31, 0.65 61.44" stroke="#1e1e1e" stroke-width="2" fill="none"></path></g><g transform="translate(339.9883673856409 484.1484375) rotate(0 -0.3702746569688884 29.91015625)"><path d="M9.41 38.03 C6.79 42.76, 4.73 52.31, 0.65 61.44 M9.41 38.03 C7.49 43.4, 5.68 49.21, 0.65 61.44" stroke="#1e1e1e" stroke-width="2" fill="none"></path></g></g><mask id="mask-0TZPDPAHxCinj--dI8ZAl"><rect x="0" y="0" fill="#fff" width="440.7289166995787" height="643.96875"></rect><rect x="314.6981021891213" y="501.55859375" fill="#000" width="49.83998107910156" height="25" opacity="1"></rect></mask><g transform="translate(314.6981021891213 501.55859375) rotate(0 24.94732403421267 12.707776184305544)"><text x="24.91999053955078" y="17.52" font-family="Virgil, Segoe UI Emoji" font-size="20px" fill="#1e1e1e" text-anchor="middle" style="white-space: pre;" direction="ltr" dominant-baseline="alphabetic">[ g ]</text></g><g stroke-linecap="round" transform="translate(10 51.39453125) rotate(0 348.708984375 294.701171875)"><path d="M32 0 C202.96 -0.26, 374.14 -0.76, 665.42 0 M665.42 0 C686.23 0.44, 696.65 10.14, 697.42 32 M697.42 32 C698.94 166.13, 699.03 300.02, 697.42 557.4 M697.42 557.4 C697.86 577.62, 685.49 590.91, 665.42 589.4 M665.42 589.4 C460.71 589.03, 255.36 588.54, 32 589.4 M32 589.4 C10.32 589.43, -0.05 580.69, 0 557.4 M0 557.4 C1.56 429.71, 1.14 302.42, 0 32 M0 32 C-0.12 10.29, 12.35 -1.4, 32 0" stroke="#1e1e1e" stroke-width="2.5" fill="none" stroke-dasharray="1.5 8"></path></g><g transform="translate(147.4921875 10) rotate(0 191.6598663330078 12.5)"><text x="0" y="17.52" font-family="Virgil, Segoe UI Emoji" font-size="20px" fill="#1971c2" text-anchor="start" style="white-space: pre;" direction="ltr" dominant-baseline="alphabetic">Finite State Machine for : r"\d+\.\d+g"</text></g></svg>